<?xml version="1.0" encoding="utf-8"?>
<!-- Generator: Adobe Illustrator 24.1.1, SVG Export Plug-In . SVG Version: 6.00 Build 0)  -->
<svg version="1.1" id="Layer_1" xmlns="http://www.w3.org/2000/svg" xmlns:xlink="http://www.w3.org/1999/xlink" x="0px" y="0px"
	 viewBox="0 0 133 133" style="enable-background:new 0 0 133 133;" xml:space="preserve">
<style type="text/css">
	.st0{opacity:0.3;}
	.st1{fill:none;stroke:#000000;stroke-width:13.6349;stroke-linecap:round;stroke-miterlimit:10;}
</style>
<g>
	<path class="st0" d="M103.4,124.1H29.6c-11.4,0-20.7-9.3-20.7-20.7V29.6c0-11.4,9.3-20.7,20.7-20.7h73.8c11.4,0,20.7,9.3,20.7,20.7
		v73.8C124.1,114.8,114.8,124.1,103.4,124.1z"/>
	<path class="st1" d="M42.3,8.9H29.6c-11.4,0-20.7,9.3-20.7,20.7v12.7"/>
	<path class="st1" d="M90.7,8.9h12.7c11.4,0,20.7,9.3,20.7,20.7v12.7"/>
	<path class="st1" d="M90.7,124.1h12.7c11.4,0,20.7-9.3,20.7-20.7V90.7"/>
	<path class="st1" d="M42.3,124.1H29.6c-11.4,0-20.7-9.3-20.7-20.7V90.7"/>
</g>
</svg>
